<svg version="1.1" id="Layer_1" xmlns:x="ns_extend;" xmlns:i="ns_ai;" xmlns:graph="ns_graphs;" xmlns="http://www.w3.org/2000/svg" xmlns:xlink="http://www.w3.org/1999/xlink" x="0px" y="0px" viewBox="0 0 680.8 92" style="enable-background:new 0 0 680.8 92;" xml:space="preserve">
 <style type="text/css">
  .st0{fill:#5830C5;}
 </style>
 <metadata>
  <sfw xmlns="ns_sfw;">
   <slices>
   </slices>
   <sliceSourceBounds bottomLeftOrigin="true" height="92" width="680.8" x="-243.3" y="-32.9">
   </sliceSourceBounds>
  </sfw>
 </metadata>
 <g id="Group_1216" transform="translate(-2843.481 -6197.846)">
  <g id="Group_666" transform="translate(2843.481 6197.846)">
   <g>
    <g id="Group_665">
     <path id="Path_192" class="st0" d="M650.5,54.9L650.5,54.9c-0.8-2.6-1.9-5-3.4-7.2c-1.4-2-3.1-3.9-5-5.4
					c-3.5-2.8-7.6-4.8-12-5.8c-1.9-0.4-3.9-0.7-5.9-0.8h-36.5c-1.9,0.1-3.9-0.5-5.3-1.9c-1.3-1.5-2-3.5-1.8-5.5
					c-0.1-2,0.6-4,1.9-5.6c1.4-1.4,3.3-2.1,5.2-1.9h56.1V0.1h-56.1c-3,0-6.1,0.5-9,1.5c-7,2.2-12.7,7.1-16,13.6
					c-3.7,8.3-3.7,17.9,0,26.2c1.7,3.4,4,6.4,7,8.7c2.7,2.2,5.7,3.8,9,4.8c2.9,0.9,5.9,1.4,9,1.5H624c1,0,2.1,0.2,3.1,0.6
					c0.8,0.3,1.6,0.8,2.2,1.5c0.6,0.7,1.1,1.5,1.4,2.3c0.4,1,0.5,2.1,0.5,3.2c0.1,2-0.5,4-1.9,5.5c-1.4,1.4-3.3,2.1-5.3,1.9h-63.3
					V92H624c2,0,4-0.2,5.9-0.7c2.1-0.5,4.2-1.1,6.2-2.1c2.1-1,4.1-2.1,5.9-3.6c2-1.5,3.7-3.4,5.1-5.4c1.5-2.2,2.6-4.7,3.4-7.2
					c0.9-3,1.3-6,1.3-9.1C651.8,60.9,651.4,57.8,650.5,54.9">
     </path>
     <path id="Path_193" class="st0" d="M184.2,11.1L184.2,11.1c-3.5-3.5-7.7-6.2-12.3-8.1c-4.9-2-10.1-3-15.4-2.9h-21.4
					c-5.3,0-10.5,0.9-15.4,2.9c-4.6,1.9-8.8,4.6-12.3,8.1c-3.5,3.5-6.3,7.7-8.1,12.3c-2,4.9-3,10.2-2.9,15.5v14.2
					c0,5.3,1,10.6,2.9,15.6c1.9,4.6,4.6,8.8,8.1,12.3c3.5,3.5,7.7,6.3,12.3,8.1c4.9,2,10.1,2.9,15.4,2.9h21.4
					c5.3,0,10.5-0.9,15.4-2.9c4.6-1.8,8.8-4.6,12.3-8.1c3.5-3.5,6.3-7.7,8.1-12.3c2-4.9,3-10.2,2.9-15.6V38.9
					c0-5.3-0.9-10.6-2.9-15.5C190.6,18.8,187.8,14.6,184.2,11.1 M135.2,20.7h21.4c2.5,0,5.1,0.4,7.5,1.3c4.3,1.6,7.7,5,9.3,9.3
					c0.9,2.4,1.4,5,1.3,7.6v14.2c0,2.6-0.4,5.2-1.3,7.6c-0.8,2.1-2.1,4.1-3.7,5.7c-1.6,1.6-3.6,2.8-5.7,3.7
					c-2.4,0.9-4.9,1.4-7.5,1.3h-21.3c-2.6,0-5.1-0.4-7.5-1.3c-2.1-0.8-4.1-2.1-5.7-3.7c-1.6-1.6-2.9-3.5-3.7-5.7
					c-0.9-2.4-1.4-5-1.3-7.6V38.9c0-2.6,0.4-5.2,1.3-7.6c0.8-2.1,2.1-4,3.7-5.7c1.6-1.6,3.6-2.8,5.7-3.7
					C130.1,21.1,132.7,20.7,135.2,20.7">
     </path>
     <path id="Path_194" class="st0" d="M296.1,11.1c-3.5-3.5-7.7-6.2-12.3-8.1c-4.9-2-10.1-3-15.4-2.9H247c-5.3,0-10.5,0.9-15.4,2.9
					c-4.6,1.9-8.8,4.6-12.3,8.1c-3.5,3.5-6.3,7.7-8.1,12.3c-2,4.9-3,10.2-2.9,15.5v14.2c-0.1,5.3,0.9,10.6,2.9,15.6
					c1.9,4.6,4.6,8.8,8.1,12.3c3.5,3.5,7.7,6.3,12.3,8.1c4.9,2,10.1,2.9,15.4,2.9h21.4c5.3,0,10.5-0.9,15.4-2.9
					c9.3-3.7,16.7-11.1,20.4-20.4c2-4.9,3-10.2,2.9-15.6V38.9c0-5.3-0.9-10.6-2.9-15.5C302.4,18.8,299.6,14.6,296.1,11.1 M247,20.7
					h21.4c2.5,0,5.1,0.4,7.5,1.3c4.3,1.6,7.7,5,9.3,9.3c0.9,2.4,1.4,5,1.3,7.6v14.2c0,2.6-0.4,5.2-1.3,7.6c-0.8,2.1-2.1,4.1-3.7,5.7
					c-1.6,1.6-3.6,2.8-5.7,3.7c-2.4,0.9-5,1.4-7.5,1.3H247c-2.6,0-5.1-0.4-7.5-1.3c-2.1-0.8-4.1-2.1-5.7-3.7
					c-1.6-1.6-2.9-3.5-3.7-5.7c-0.9-2.4-1.4-5-1.3-7.6V38.9c0-2.6,0.4-5.2,1.3-7.6c0.8-2.1,2.1-4,3.7-5.7c1.6-1.6,3.6-2.8,5.7-3.7
					C241.9,21.1,244.5,20.7,247,20.7">
     </path>
     <path id="Path_195" class="st0" d="M401.7,11.1L401.7,11.1c-3.5-3.5-7.7-6.2-12.3-8.1c-4.9-2-10.1-3-15.4-2.9h-42.6
					c-1.4,0-2.8,0.3-4.1,0.8c-1.3,0.5-2.4,1.3-3.3,2.3c-0.9,1-1.7,2.1-2.2,3.3c-0.5,1.3-0.8,2.6-0.8,4v71.1c0,1.4,0.3,2.8,0.8,4.1
					c0.5,1.2,1.3,2.4,2.2,3.3c1,0.9,2.1,1.7,3.3,2.2c1.3,0.5,2.7,0.8,4.1,0.8H374c5.3,0,10.5-1,15.4-2.9c4.6-1.9,8.8-4.6,12.3-8.1
					c3.5-3.5,6.3-7.7,8.1-12.3c2-4.9,3-10.2,2.9-15.5V39c0-5.3-1-10.6-2.9-15.5C408,18.8,405.2,14.6,401.7,11.1 M374,71.4h-32.4
					V20.7H374c2.6,0,5.1,0.4,7.5,1.3c2.1,0.8,4.1,2.1,5.7,3.7c1.6,1.6,2.8,3.5,3.7,5.7c0.9,2.4,1.3,5,1.3,7.6v14.2
					c0,2.6-0.4,5.2-1.3,7.6c-0.8,2.1-2.1,4.1-3.7,5.7c-1.6,1.6-3.6,2.8-5.7,3.7C379.1,71,376.5,71.4,374,71.4">
     </path>
     <rect id="Rectangle_320" x="426.8" y="0.1" class="st0" width="20.6" height="91.9">
     </rect>
     <path id="Path_196" class="st0" d="M484.9,3c-9.3,3.7-16.7,11.1-20.5,20.4c-2,4.9-3,10.2-2.9,15.5v14.2c0,5.3,1,10.6,2.9,15.5
					c3.7,9.3,11.2,16.7,20.5,20.4c4.9,2,10.1,3,15.4,2.9h45V71.3h-45c-2.6,0-5.1-0.4-7.5-1.3c-2.1-0.8-4.1-2.1-5.7-3.7
					c-1.6-1.6-2.9-3.5-3.7-5.7c-0.9-2.4-1.4-5-1.3-7.6V38.9c0-2.6,0.4-5.2,1.3-7.6c0.8-2.1,2.1-4,3.7-5.7c1.6-1.6,3.6-2.8,5.7-3.7
					c2.4-0.9,5-1.4,7.5-1.3h45V0.1h-45C495.1,0.1,489.9,1.1,484.9,3">
     </path>
     <path id="Path_197" class="st0" d="M19.2,73.8L19.2,73.8c-0.8-0.8-1.7-1.3-2.7-1.8c-1.1-0.4-2.2-0.6-3.4-0.6H8.5
					c-1.2,0-2.3,0.2-3.4,0.6c-2,0.8-3.7,2.4-4.5,4.5C0.2,77.5,0,78.7,0,79.9v3.6c0,1.2,0.2,2.3,0.7,3.4c0.4,1,1,1.9,1.8,2.7
					c0.8,0.8,1.7,1.4,2.7,1.8C6.2,91.8,7.3,92,8.5,92h4.7c1.2,0,2.3-0.2,3.4-0.6c1-0.4,1.9-1,2.7-1.8c0.8-0.8,1.4-1.7,1.8-2.7
					c0.4-1.1,0.6-2.2,0.6-3.4v-3.6c0-1.2-0.2-2.3-0.6-3.4C20.6,75.5,20,74.5,19.2,73.8">
     </path>
     <path id="Path_198" class="st0" d="M666.8,5.6h5.1c1.4-0.1,2.7,1,2.8,2.4c0,0.1,0,0.1,0,0.2c0.1,1-0.5,2-1.5,2.4v0
					c1,0.3,1.3,1.3,1.4,2.2c0,0.8,0.1,1.5,0.4,2.2h-2.1c-0.2-0.7-0.3-1.5-0.3-2.2c-0.1-1-0.5-1.4-1.6-1.4h-2.1v3.7h-2.1L666.8,5.6
					L666.8,5.6z M668.9,9.8h2.3c0.9,0,1.4-0.4,1.4-1.3s-0.5-1.3-1.4-1.3h-2.3V9.8z">
     </path>
     <path id="Path_199" class="st0" d="M670.5,20.7c-5.7,0-10.3-4.6-10.3-10.3s4.6-10.3,10.3-10.3c5.7,0,10.3,4.6,10.3,10.3
					c0,0,0,0,0,0C680.8,16.1,676.2,20.7,670.5,20.7 M670.5,2.3c-4.5,0-8.1,3.6-8.1,8.1s3.6,8.1,8.1,8.1c4.5,0,8.1-3.6,8.1-8.1
					C678.6,5.9,675,2.3,670.5,2.3">
     </path>
     <path id="Path_200" class="st0" d="M21.1,26.8c0-3.3,2.6-5.9,5.9-5.9c0,0,0,0,0,0h56.7V0H27.5C12.4,0,0.2,12.2,0.2,27.2v9
					c0,15,12.2,27.3,27.2,27.3c0,0,0,0,0,0h29.6V42.7H27c-3.3,0-5.9-2.6-5.9-5.9c0,0,0,0,0,0V26.8z">
     </path>
    </g>
   </g>
  </g>
 </g>
</svg>